<?xml version="1.0" encoding="utf-8"?>
<!-- Generator: Adobe Illustrator 16.0.0, SVG Export Plug-In . SVG Version: 6.00 Build 0)  -->
<!DOCTYPE svg PUBLIC "-//W3C//DTD SVG 1.1//EN" "http://www.w3.org/Graphics/SVG/1.1/DTD/svg11.dtd">
<svg version="1.1" id="Layer_1" xmlns="http://www.w3.org/2000/svg" xmlns:xlink="http://www.w3.org/1999/xlink" x="0px" y="0px"
	 width="360px" height="91.139px" viewBox="0 0 360 91.139" enable-background="new 0 0 360 91.139" xml:space="preserve">
<g>
	<g>
		<polygon fill="#39B54A" points="21.839,82.51 2.736,82.51 2.736,26.371 6.878,22.435 2.736,18.604 2.736,8.629 21.839,8.629 		"/>
		<polygon fill="#39B54A" points="21.591,82.51 40.445,82.51 40.445,26.371 36.552,22.437 40.694,18.604 40.694,8.629 21.591,8.629 
					"/>
	</g>
	<path fill="#414042" d="M7.04,79.799c0,0.275-0.223,0.498-0.497,0.498l0,0c-0.275,0-0.497-0.223-0.497-0.498V65.055
		c0-0.273,0.222-0.496,0.497-0.496l0,0c0.274,0,0.497,0.223,0.497,0.496V79.799z"/>
	<path fill="#414042" d="M9.047,79.799c0,0.275-0.223,0.498-0.498,0.498l0,0c-0.274,0-0.497-0.223-0.497-0.498V65.055
		c0-0.273,0.223-0.496,0.497-0.496l0,0c0.275,0,0.498,0.223,0.498,0.496V79.799z"/>
	<path fill="#414042" d="M11.053,79.799c0,0.275-0.223,0.498-0.497,0.498l0,0c-0.275,0-0.498-0.223-0.498-0.498V65.055
		c0-0.273,0.223-0.496,0.498-0.496l0,0c0.274,0,0.497,0.223,0.497,0.496V79.799z"/>
	<path fill="#414042" d="M13.059,79.799c0,0.275-0.222,0.498-0.497,0.498l0,0c-0.274,0-0.497-0.223-0.497-0.498V65.055
		c0-0.273,0.223-0.496,0.497-0.496l0,0c0.275,0,0.497,0.223,0.497,0.496V79.799z"/>
	<path fill="#414042" d="M15.065,79.799c0,0.275-0.223,0.498-0.497,0.498l0,0c-0.274,0-0.497-0.223-0.497-0.498V65.055
		c0-0.273,0.223-0.496,0.497-0.496l0,0c0.274,0,0.497,0.223,0.497,0.496V79.799z"/>
	<path fill="#414042" d="M17.072,79.799c0,0.275-0.223,0.498-0.497,0.498l0,0c-0.275,0-0.497-0.223-0.497-0.498V65.055
		c0-0.273,0.222-0.496,0.497-0.496l0,0c0.274,0,0.497,0.223,0.497,0.496V79.799z"/>
	<path fill="#414042" d="M19.079,79.799c0,0.275-0.223,0.498-0.498,0.498l0,0c-0.274,0-0.497-0.223-0.497-0.498V65.055
		c0-0.273,0.223-0.496,0.497-0.496l0,0c0.275,0,0.498,0.223,0.498,0.496V79.799z"/>
	<path fill="#414042" d="M21.085,79.799c0,0.275-0.223,0.498-0.498,0.498l0,0c-0.274,0-0.497-0.223-0.497-0.498V65.055
		c0-0.273,0.223-0.496,0.497-0.496l0,0c0.275,0,0.498,0.223,0.498,0.496V79.799z"/>
	<path fill="#414042" d="M23.091,79.799c0,0.275-0.223,0.498-0.497,0.498l0,0c-0.274,0-0.497-0.223-0.497-0.498V65.055
		c0-0.273,0.222-0.496,0.497-0.496l0,0c0.274,0,0.497,0.223,0.497,0.496V79.799z"/>
	<path fill="#414042" d="M25.097,79.799c0,0.275-0.223,0.498-0.497,0.498l0,0c-0.275,0-0.497-0.223-0.497-0.498V65.055
		c0-0.273,0.222-0.496,0.497-0.496l0,0c0.274,0,0.497,0.223,0.497,0.496V79.799z"/>
	<path fill="#414042" d="M27.104,79.799c0,0.275-0.224,0.498-0.498,0.498l0,0c-0.274,0-0.497-0.223-0.497-0.498V65.055
		c0-0.273,0.223-0.496,0.497-0.496l0,0c0.274,0,0.498,0.223,0.498,0.496V79.799z"/>
	<path fill="#414042" d="M29.11,79.799c0,0.275-0.224,0.498-0.498,0.498l0,0c-0.275,0-0.497-0.223-0.497-0.498V65.055
		c0-0.273,0.222-0.496,0.497-0.496l0,0c0.274,0,0.498,0.223,0.498,0.496V79.799z"/>
	<path fill="#414042" d="M31.117,79.799c0,0.275-0.223,0.498-0.498,0.498l0,0c-0.275,0-0.497-0.223-0.497-0.498V65.055
		c0-0.273,0.222-0.496,0.497-0.496l0,0c0.274,0,0.498,0.223,0.498,0.496V79.799z"/>
	<path fill="#414042" d="M33.123,79.799c0,0.275-0.223,0.498-0.497,0.498l0,0c-0.274,0-0.497-0.223-0.497-0.498V65.055
		c0-0.273,0.222-0.496,0.497-0.496l0,0c0.274,0,0.497,0.223,0.497,0.496V79.799z"/>
	<path fill="#414042" d="M35.129,79.799c0,0.275-0.223,0.498-0.497,0.498l0,0c-0.275,0-0.497-0.223-0.497-0.498V65.055
		c0-0.273,0.222-0.496,0.497-0.496l0,0c0.274,0,0.497,0.223,0.497,0.496V79.799z"/>
	<path fill="#414042" d="M37.136,79.799c0,0.275-0.224,0.498-0.498,0.498l0,0c-0.274,0-0.497-0.223-0.497-0.498V65.055
		c0-0.273,0.223-0.496,0.497-0.496l0,0c0.274,0,0.498,0.223,0.498,0.496V79.799z"/>
	<g>
		<path fill="#414042" d="M20.022,36.113V33.54c-1.814-0.081-3.575-0.569-4.604-1.165l0.813-3.169
			c1.138,0.623,2.735,1.192,4.496,1.192c1.543,0,2.6-0.596,2.6-1.679c0-1.029-0.867-1.679-2.871-2.356
			c-2.898-0.975-4.875-2.329-4.875-4.957c0-2.383,1.679-4.252,4.577-4.821v-2.573h2.654v2.384c1.814,0.081,3.033,0.46,3.927,0.894
			l-0.786,3.061c-0.704-0.298-1.95-0.921-3.9-0.921c-1.761,0-2.33,0.758-2.33,1.517c0,0.894,0.948,1.463,3.25,2.33
			c3.223,1.137,4.523,2.627,4.523,5.064c0,2.411-1.707,4.469-4.821,5.011v2.763H20.022z"/>
	</g>
	<g>
		<path fill-rule="evenodd" clip-rule="evenodd" fill="#414042" d="M29.75,62.941c-0.994,0-1.988,0-2.981,0
			c-0.233-0.594-0.466-1.189-0.738-1.883c-2.978,0-6.053,0-8.975,0c-0.27,0.701-0.498,1.293-0.725,1.883c-0.995,0-1.988,0-2.982,0
			c-0.236-0.799-0.459-1.604-0.712-2.398c-0.216-0.679-0.692-1.357-0.666-2.021c0.144-3.669,0.311-7.343,0.658-10.997
			c0.242-2.542,0.754-5.073,3.744-5.983c0.179-0.055,0.4-0.339,0.408-0.526c0.037-0.863,0.58-0.984,1.267-0.986
			c2.152-0.01,4.303-0.057,6.454-0.04c0.83,0.008,1.815-0.145,1.91,1.184c0.014,0.201,0.464,0.434,0.753,0.541
			c1.894,0.704,2.758,2.222,3.023,4.063c0.401,2.778,0.715,5.57,0.938,8.367C31.369,57.17,31.142,60.155,29.75,62.941z
			 M21.379,51.455c1.987,0,3.974-0.019,5.961,0.008c1.086,0.014,1.554-0.523,1.402-1.537c-0.189-1.262-0.481-2.51-0.731-3.764
			c-0.335-1.682-0.893-2.276-2.541-2.321c-2.606-0.071-5.217-0.061-7.823-0.007c-1.122,0.021-2.16,0.38-2.435,1.683
			c-0.315,1.491-0.6,2.991-0.858,4.493c-0.171,1,0.291,1.462,1.313,1.449C17.571,51.435,19.476,51.452,21.379,51.455z
			 M28.513,56.735c0.001-0.869-0.853-1.72-1.742-1.734c-0.846-0.014-1.63,0.767-1.664,1.658c-0.034,0.905,0.805,1.813,1.663,1.799
			C27.698,58.444,28.512,57.64,28.513,56.735z M16.262,55.029c-0.884,0.023-1.641,0.789-1.65,1.672
			c-0.01,0.94,0.799,1.75,1.725,1.728c0.912-0.023,1.71-0.895,1.652-1.808C17.932,55.712,17.167,55.006,16.262,55.029z
			 M17.995,41.438c0.478,0.239,0.61,0.36,0.743,0.363c1.82,0.03,3.64,0.059,5.46,0.041c0.192-0.001,0.383-0.292,0.574-0.449
			c-0.219-0.139-0.438-0.394-0.659-0.397c-1.694-0.024-3.389-0.01-5.083,0.025C18.789,41.025,18.553,41.205,17.995,41.438z"/>
	</g>
</g>
<g>
	<path fill="#414042" d="M69.509,36.18H57.011v-8.838h35.766v8.838H80.073v37.699H69.509V36.18z"/>
	<path fill="#414042" d="M94.293,51.232c0-4.971-0.138-8.217-0.276-11.117h9.045l0.345,6.214h0.276
		c1.727-4.902,5.869-6.974,9.114-6.974c0.967,0,1.45,0,2.209,0.138v9.874c-0.759-0.138-1.657-0.276-2.83-0.276
		c-3.867,0-6.491,2.071-7.182,5.316c-0.138,0.691-0.207,1.519-0.207,2.348v17.123H94.293V51.232z"/>
	<path fill="#414042" d="M138.963,73.879l-0.621-3.383h-0.207c-2.21,2.693-5.662,4.143-9.667,4.143
		c-6.835,0-10.909-4.971-10.909-10.357c0-8.768,7.872-12.98,19.816-12.911v-0.483c0-1.795-0.967-4.35-6.145-4.35
		c-3.453,0-7.112,1.174-9.321,2.555l-1.934-6.767c2.348-1.312,6.974-2.969,13.119-2.969c11.254,0,14.845,6.628,14.845,14.569v11.737
		c0,3.246,0.138,6.354,0.483,8.217H138.963z M137.721,57.93c-5.524-0.069-9.805,1.242-9.805,5.316c0,2.693,1.795,4.004,4.143,4.004
		c2.624,0,4.765-1.725,5.455-3.865c0.138-0.553,0.207-1.174,0.207-1.795V57.93z"/>
	<path fill="#414042" d="M156.222,50.887c0-4.212-0.139-7.802-0.276-10.771h9.114l0.483,4.626h0.207
		c1.381-2.141,4.833-5.386,10.426-5.386c6.904,0,12.083,4.557,12.083,14.5v20.023h-10.495V55.168c0-4.35-1.519-7.319-5.316-7.319
		c-2.899,0-4.626,2.002-5.316,3.936c-0.276,0.622-0.414,1.657-0.414,2.624v19.471h-10.495V50.887z"/>
	<path fill="#414042" d="M196.609,64.695c1.934,1.174,5.938,2.555,9.045,2.555c3.177,0,4.488-1.104,4.488-2.83
		s-1.036-2.555-4.972-3.867c-6.974-2.348-9.666-6.145-9.597-10.149c0-6.283,5.385-11.047,13.74-11.047
		c3.936,0,7.456,0.897,9.528,1.933l-1.864,7.25c-1.52-0.829-4.419-1.933-7.319-1.933c-2.555,0-4.005,1.036-4.005,2.762
		c0,1.588,1.313,2.417,5.455,3.867c6.421,2.209,9.114,5.455,9.183,10.425c0,6.283-4.971,10.91-14.638,10.91
		c-4.419,0-8.354-0.967-10.909-2.348L196.609,64.695z"/>
	<path fill="#414042" d="M226.642,51.439c0-4.419-0.139-8.216-0.276-11.324h9.114l0.483,4.695h0.138
		c2.486-3.59,6.353-5.455,11.255-5.455c7.388,0,14.017,6.421,14.017,17.192c0,12.291-7.803,18.09-15.329,18.09
		c-4.073,0-7.249-1.656-8.769-3.867h-0.138v16.779h-10.495V51.439z M237.137,59.379c0,0.83,0.068,1.59,0.207,2.211
		c0.69,2.83,3.107,4.971,6.145,4.971c4.558,0,7.25-3.797,7.25-9.528c0-5.386-2.416-9.459-7.111-9.459
		c-2.969,0-5.593,2.209-6.283,5.316c-0.139,0.553-0.207,1.243-0.207,1.864V59.379z"/>
	<path fill="#414042" d="M301.481,56.618c0,12.359-8.769,18.021-17.813,18.021c-9.873,0-17.469-6.49-17.469-17.399
		s7.181-17.883,18.021-17.883C294.577,39.356,301.481,46.468,301.481,56.618z M277.04,56.963c0,5.801,2.416,10.15,6.904,10.15
		c4.073,0,6.697-4.074,6.697-10.15c0-5.04-1.934-10.149-6.697-10.149C278.904,46.813,277.04,51.992,277.04,56.963z"/>
	<path fill="#414042" d="M307.969,51.232c0-4.971-0.139-8.217-0.276-11.117h9.045l0.346,6.214h0.276
		c1.726-4.902,5.868-6.974,9.113-6.974c0.967,0,1.45,0,2.21,0.138v9.874c-0.76-0.138-1.657-0.276-2.831-0.276
		c-3.866,0-6.49,2.071-7.181,5.316c-0.139,0.691-0.207,1.519-0.207,2.348v17.123h-10.495V51.232z"/>
	<path fill="#414042" d="M347.39,30.449v9.667h7.526v7.733h-7.526V60.07c0,4.074,0.967,5.938,4.144,5.938
		c1.312,0,2.348-0.139,3.106-0.275l0.069,7.939c-1.381,0.553-3.866,0.898-6.836,0.898c-3.383,0-6.214-1.174-7.871-2.9
		c-1.933-2.002-2.899-5.248-2.899-10.012V47.849h-4.488v-7.733h4.488v-7.319L347.39,30.449z"/>
</g>
</svg>
