<?xml version="1.0" encoding="utf-8"?>
<!-- Generator: Adobe Illustrator 16.0.0, SVG Export Plug-In . SVG Version: 6.00 Build 0)  -->
<!DOCTYPE svg PUBLIC "-//W3C//DTD SVG 1.1//EN" "http://www.w3.org/Graphics/SVG/1.1/DTD/svg11.dtd">
<svg version="1.1" id="Layer_1" xmlns="http://www.w3.org/2000/svg" xmlns:xlink="http://www.w3.org/1999/xlink" x="0px" y="0px"
	 width="152.747px" height="297.296px" viewBox="0 0 152.747 297.296" enable-background="new 0 0 152.747 297.296"
	 xml:space="preserve">
<g>
	<polygon fill="#39B54A" points="76.874,297.296 0,297.296 0,71.392 16.667,55.559 0,40.143 0,0 76.874,0 	"/>
	<polygon fill="#39B54A" points="75.874,297.296 151.747,297.296 151.747,71.393 136.08,55.56 152.747,40.143 152.747,0 75.874,0 	
		"/>
</g>
<path fill="#FFFFFF" d="M17.321,286.392c0,1.104-0.896,2-2,2l0,0c-1.104,0-2-0.896-2-2v-59.334c0-1.104,0.896-2,2-2l0,0
	c1.104,0,2,0.896,2,2V286.392z"/>
<path fill="#FFFFFF" d="M25.395,286.392c0,1.104-0.896,2-2,2l0,0c-1.104,0-2-0.896-2-2v-59.334c0-1.104,0.896-2,2-2l0,0
	c1.104,0,2,0.896,2,2V286.392z"/>
<path fill="#FFFFFF" d="M33.468,286.392c0,1.104-0.896,2-2,2l0,0c-1.104,0-2-0.896-2-2v-59.334c0-1.104,0.896-2,2-2l0,0
	c1.104,0,2,0.896,2,2V286.392z"/>
<path fill="#FFFFFF" d="M41.542,286.392c0,1.104-0.896,2-2,2l0,0c-1.104,0-2-0.896-2-2v-59.334c0-1.104,0.896-2,2-2l0,0
	c1.104,0,2,0.896,2,2V286.392z"/>
<path fill="#FFFFFF" d="M49.616,286.392c0,1.104-0.896,2-2,2l0,0c-1.104,0-2-0.896-2-2v-59.334c0-1.104,0.896-2,2-2l0,0
	c1.104,0,2,0.896,2,2V286.392z"/>
<path fill="#FFFFFF" d="M57.689,286.392c0,1.104-0.896,2-2,2l0,0c-1.104,0-2-0.896-2-2v-59.334c0-1.104,0.896-2,2-2l0,0
	c1.104,0,2,0.896,2,2V286.392z"/>
<path fill="#FFFFFF" d="M65.763,286.392c0,1.104-0.896,2-2,2l0,0c-1.104,0-2-0.896-2-2v-59.334c0-1.104,0.896-2,2-2l0,0
	c1.104,0,2,0.896,2,2V286.392z"/>
<path fill="#FFFFFF" d="M73.836,286.392c0,1.104-0.896,2-2,2l0,0c-1.104,0-2-0.896-2-2v-59.334c0-1.104,0.896-2,2-2l0,0
	c1.104,0,2,0.896,2,2V286.392z"/>
<path fill="#FFFFFF" d="M81.91,286.392c0,1.104-0.896,2-2,2l0,0c-1.105,0-1.999-0.896-1.999-2v-59.334c0-1.104,0.894-2,1.999-2l0,0
	c1.104,0,2,0.896,2,2V286.392z"/>
<path fill="#FFFFFF" d="M89.984,286.392c0,1.104-0.896,2-2,2l0,0c-1.105,0-2-0.896-2-2v-59.334c0-1.104,0.895-2,2-2l0,0
	c1.104,0,2,0.896,2,2V286.392z"/>
<path fill="#FFFFFF" d="M98.057,286.392c0,1.104-0.896,2-2,2l0,0c-1.105,0-2-0.896-2-2v-59.334c0-1.104,0.895-2,2-2l0,0
	c1.104,0,2,0.896,2,2V286.392z"/>
<path fill="#FFFFFF" d="M106.13,286.392c0,1.104-0.896,2-2,2l0,0c-1.105,0-2-0.896-2-2v-59.334c0-1.104,0.895-2,2-2l0,0
	c1.104,0,2,0.896,2,2V286.392z"/>
<path fill="#FFFFFF" d="M114.205,286.392c0,1.104-0.896,2-2,2l0,0c-1.105,0-2-0.896-2-2v-59.334c0-1.104,0.895-2,2-2l0,0
	c1.104,0,2,0.896,2,2V286.392z"/>
<path fill="#FFFFFF" d="M122.278,286.392c0,1.104-0.896,2-2,2l0,0c-1.105,0-2-0.896-2-2v-59.334c0-1.104,0.895-2,2-2l0,0
	c1.104,0,2,0.896,2,2V286.392z"/>
<path fill="#FFFFFF" d="M130.352,286.392c0,1.104-0.896,2-2,2l0,0c-1.105,0-2-0.896-2-2v-59.334c0-1.104,0.895-2,2-2l0,0
	c1.104,0,2,0.896,2,2V286.392z"/>
<path fill="#FFFFFF" d="M138.425,286.392c0,1.104-0.896,2-2,2l0,0c-1.105,0-2-0.896-2-2v-59.334c0-1.104,0.895-2,2-2l0,0
	c1.104,0,2,0.896,2,2V286.392z"/>
<g>
	<path fill="#FFFFFF" d="M69.569,110.597v-10.354c-7.302-0.327-14.387-2.289-18.529-4.687l3.27-12.752
		c4.578,2.507,11.008,4.796,18.093,4.796c6.213,0,10.463-2.398,10.463-6.758c0-4.142-3.487-6.757-11.553-9.482
		c-11.663-3.924-19.619-9.374-19.619-19.946c0-9.591,6.758-17.112,18.42-19.401V21.659h10.682v9.591
		c7.303,0.327,12.207,1.853,15.804,3.597l-3.161,12.316c-2.834-1.199-7.848-3.706-15.694-3.706c-7.085,0-9.374,3.052-9.374,6.104
		c0,3.597,3.814,5.885,13.08,9.373c12.97,4.578,18.201,10.573,18.201,20.382c0,9.701-6.866,17.984-19.4,20.164v11.117H69.569z"/>
</g>
<g>
	<path fill-rule="evenodd" clip-rule="evenodd" fill="#FFFFFF" d="M108.708,218.557c-4,0-8,0-12,0
		c-0.939-2.396-1.877-4.792-2.969-7.578c-11.984,0-24.357,0-36.113,0c-1.086,2.819-2.003,5.199-2.92,7.578c-4,0-8,0-12,0
		c-0.949-3.219-1.847-6.453-2.864-9.65c-0.871-2.736-2.782-5.463-2.679-8.133c0.577-14.765,1.25-29.546,2.65-44.25
		c0.973-10.232,3.033-20.413,15.063-24.076c0.722-0.22,1.611-1.369,1.643-2.121c0.15-3.471,2.332-3.956,5.102-3.968
		c8.655-0.038,17.312-0.226,25.968-0.155c3.34,0.026,7.303-0.585,7.686,4.762c0.059,0.807,1.869,1.742,3.033,2.175
		c7.621,2.831,11.098,8.94,12.166,16.348c1.613,11.175,2.879,22.417,3.777,33.671C115.221,195.332,114.305,207.346,108.708,218.557z
		 M75.021,172.333c7.996,0,15.992-0.077,23.986,0.03c4.371,0.059,6.256-2.105,5.643-6.184c-0.764-5.08-1.938-10.101-2.941-15.145
		c-1.35-6.773-3.59-9.158-10.223-9.339c-10.488-0.286-20.992-0.245-31.481-0.033c-4.513,0.091-8.694,1.533-9.8,6.772
		c-1.267,6.004-2.413,12.037-3.451,18.084c-0.691,4.021,1.17,5.881,5.284,5.828C59.697,172.252,67.36,172.321,75.021,172.333z
		 M103.729,193.582c0.004-3.498-3.436-6.923-7.014-6.982c-3.402-0.056-6.557,3.089-6.693,6.677c-0.137,3.638,3.24,7.292,6.691,7.238
		C100.45,200.456,103.723,197.221,103.729,193.582z M54.43,186.715c-3.556,0.091-6.601,3.176-6.638,6.727
		c-0.041,3.787,3.213,7.046,6.939,6.953c3.673-0.092,6.882-3.6,6.65-7.271C61.151,189.463,58.069,186.624,54.43,186.715z
		 M61.4,132.022c1.924,0.961,2.454,1.451,2.991,1.46c7.322,0.122,14.648,0.236,21.968,0.167c0.777-0.007,1.543-1.18,2.313-1.811
		c-0.883-0.558-1.76-1.584-2.65-1.597c-6.818-0.095-13.641-0.037-20.459,0.103C64.599,130.365,63.648,131.087,61.4,132.022z"/>
</g>
</svg>
